<?xml version="1.0" encoding="UTF-8" standalone="no"?>
<svg width="18px" height="18px" viewBox="0 0 18 18" version="1.1" xmlns="http://www.w3.org/2000/svg" xmlns:xlink="http://www.w3.org/1999/xlink">
    <!-- Generator: Sketch 41.2 (35397) - http://www.bohemiancoding.com/sketch -->
    <title>Page 1</title>
    <desc>Created with Sketch.</desc>
    <defs>
        <polygon id="path-1" points="18 17.99982 18 0 0.000135 0 0.000135 17.99982 18 17.99982"></polygon>
    </defs>
    <g id="NSF-Challenge" stroke="none" stroke-width="1" fill="none" fill-rule="evenodd" opacity="1">
        <g id="Desktop-Copy-2" transform="translate(-651.000000, -3745.000000)">
            <g id="Footer" transform="translate(1.000000, 3695.000000)">
                <g id="Links-Copy" transform="translate(449.000000, 50.000000)">
                    <g id="Page-1" transform="translate(201.000000, 0.000000)">
                        <mask id="mask-2" fill="white">
                            <use xlink:href="#path-1"></use>
                        </mask>
                        <g id="Clip-2"></g>
                        <path d="M12.740085,9.52632 C12.080835,9.52632 11.546235,8.99172 11.546235,8.33247 C11.546235,7.67322 12.080835,7.13907 12.740085,7.13907 C13.399335,7.13907 13.933935,7.67322 13.933935,8.33247 C13.933935,8.99172 13.399335,9.52632 12.740085,9.52632 M12.127635,12.95082 C11.630835,12.95082 11.228085,12.54807 11.228085,12.05127 C11.228085,11.55447 11.630835,11.15172 12.127635,11.15172 C12.624435,11.15172 13.027185,11.55447 13.027185,12.05127 C13.027185,12.54807 12.624435,12.95082 12.127635,12.95082 M9.899685,5.42457 C9.402885,5.42457 9.000135,5.02182 9.000135,4.52547 C9.000135,4.02867 9.402885,3.62592 9.899685,3.62592 C10.396035,3.62592 10.798785,4.02867 10.798785,4.52547 C10.798785,5.02182 10.396035,5.42457 9.899685,5.42457 M8.329185,10.72017 C7.669935,10.72017 7.135785,10.18557 7.135785,9.52632 C7.135785,8.86707 7.669935,8.33247 8.329185,8.33247 C8.988435,8.33247 9.523035,8.86707 9.523035,9.52632 C9.523035,10.18557 8.988435,10.72017 8.329185,10.72017 M8.398935,14.13297 C7.902135,14.13297 7.499385,13.73022 7.499385,13.23342 C7.499385,12.73707 7.902135,12.33432 8.398935,12.33432 C8.895735,12.33432 9.298485,12.73707 9.298485,13.23342 C9.298485,13.73022 8.895735,14.13297 8.398935,14.13297 M4.919085,8.70777 C4.259835,8.70777 3.725235,8.17362 3.725235,7.51437 C3.725235,6.85512 4.259835,6.32052 4.919085,6.32052 C5.578335,6.32052 6.112485,6.85512 6.112485,7.51437 C6.112485,8.17362 5.578335,8.70777 4.919085,8.70777 M9.000135,-0.00018 C4.029435,-0.00018 0.000135,4.02957 0.000135,8.99982 C0.000135,13.97052 4.029435,17.99982 9.000135,17.99982 C13.970385,17.99982 18.000135,13.97052 18.000135,8.99982 C18.000135,4.02957 13.970385,-0.00018 9.000135,-0.00018" id="Fill-1" fill="#FEFEFE" mask="url(#mask-2)"></path>
                    </g>
                </g>
            </g>
        </g>
    </g>
</svg>
