<?xml version="1.0" encoding="UTF-8" standalone="no"?>
<svg width="26px" height="39px" viewBox="0 0 26 39" version="1.1" xmlns="http://www.w3.org/2000/svg" xmlns:xlink="http://www.w3.org/1999/xlink">
    <!-- Generator: Sketch 41.2 (35397) - http://www.bohemiancoding.com/sketch -->
    <title>icon applications</title>
    <desc>Created with Sketch.</desc>
    <defs></defs>
    <g id="NSF-Challenge" stroke="none" stroke-width="1" fill="none" fill-rule="evenodd" stroke-linecap="round" stroke-linejoin="round">
        <g id="Desktop-Comp" transform="translate(-374.000000, -1639.000000)" stroke="#999CE5">
            <g id="Icons" transform="translate(367.000000, 1493.000000)">
                <g id="icon-applications" transform="translate(8.000000, 147.000000)">
                    <path d="M24.2954839,12.1419355 C24.2954839,18.8477419 18.8567742,24.283871 12.1470968,24.283871 C5.43870968,24.283871 0,18.8477419 0,12.1419355 C0,5.43612903 5.43870968,0 12.1470968,0 C18.8567742,0 24.2954839,5.43612903 24.2954839,12.1419355 Z" id="Stroke-26"></path>
                    <polyline id="Stroke-27" points="19.4349677 21.8409032 24.1472258 34.6060645 19.6633548 33.5350968 16.9485161 37.2615484 12.1614194 24.2899355"></polyline>
                    <polyline id="Stroke-28" points="12.1545806 24.2861935 8.69909677 33.6436129 5.98554839 29.9171613 1.5003871 30.988129 4.87458065 21.8552258"></polyline>
                    <polyline id="Stroke-29" points="5.9676129 11.6430968 10.2695484 15.9424516 18.3276129 7.88954839"></polyline>
                </g>
            </g>
        </g>
    </g>
</svg>