<?xml version="1.0" encoding="UTF-8" standalone="no"?>
<svg width="30px" height="40px" viewBox="0 0 30 40" version="1.1" xmlns="http://www.w3.org/2000/svg" xmlns:xlink="http://www.w3.org/1999/xlink">
    <!-- Generator: Sketch 42 (36781) - http://www.bohemiancoding.com/sketch -->
    <title>Page 1</title>
    <desc>Created with Sketch.</desc>
    <defs>
        <polygon id="path-1" points="12.4163478 1.3125 0.225913043 1.3125 0.225913043 0.04423125 12.4163478 0.04423125"></polygon>
    </defs>
    <g id="NSF-Challenge" stroke="none" stroke-width="1" fill="none" fill-rule="evenodd">
        <g id="Desktop-Comp" transform="translate(-159.000000, -1684.000000)">
            <g id="Icons" transform="translate(154.000000, 1393.000000)">
                <g id="Page-1" transform="translate(5.000000, 291.000000)">
                    <path d="M12.8432609,0.65625 C21.5954348,0.65625 29.3015217,8.3934375 29.3015217,17.1819375 C29.3015217,25.9704375 21.5954348,33.7063125 12.8432609,33.7063125 C6.74804348,33.7063125 4.91934783,31.2585 4.91934783,31.2585" id="Stroke-1" stroke="#999CE5" stroke-linecap="round" stroke-linejoin="round"></path>
                    <path d="M12.8432609,4.94064375 C19.5763043,4.94064375 25.0336957,10.4216438 25.0336957,17.1810188 C25.0336957,23.9417063 19.5763043,29.4227063 12.8432609,29.4227063 C6.11021739,29.4227063 0.652826087,23.9417063 0.652826087,17.1810188 C0.652826087,10.4216438 6.11021739,4.94064375 12.8432609,4.94064375 Z" id="Stroke-3" stroke="#999CE5" stroke-linecap="round" stroke-linejoin="round"></path>
                    <path d="M12.8432609,33.0946875 L12.8432609,39.214875" id="Stroke-5" stroke="#999CE5" stroke-linecap="round" stroke-linejoin="round"></path>
                    <g id="Group-9" transform="translate(6.521739, 38.558888)">
                        <mask id="mask-2" fill="white">
                            <use xlink:href="#path-1"></use>
                        </mask>
                        <g id="Clip-8"></g>
                        <path d="M0.225913043,0.04423125 L12.4163478,0.04423125" id="Stroke-7" stroke="#999CE5" stroke-linecap="round" stroke-linejoin="round" mask="url(#mask-2)"></path>
                    </g>
                </g>
            </g>
        </g>
    </g>
</svg>