<?xml version="1.0" encoding="UTF-8" standalone="no"?>
<svg width="96px" height="31px" viewBox="0 0 96 31" version="1.1" xmlns="http://www.w3.org/2000/svg" xmlns:xlink="http://www.w3.org/1999/xlink">
    <!-- Generator: Sketch 41.2 (35397) - http://www.bohemiancoding.com/sketch -->
    <title>logo</title>
    <desc>Created with Sketch.</desc>
    <defs></defs>
    <g id="NSF-Challenge" stroke="none" stroke-width="1" fill="none" fill-rule="evenodd">
        <g id="Desktop-Comp" transform="translate(-324.000000, -4115.000000)" fill="#FFFFFF">
            <g id="Footer" transform="translate(0.000000, 3995.000000)">
                <g id="Mozilla-Copy" transform="translate(324.000000, 103.000000)">
                    <g id="logo" transform="translate(0.000000, 17.000000)">
                        <path d="M83.4818653,19.222864 C83.4818653,20.0297618 83.8748187,20.6693759 84.9740933,20.6693759 C86.2673575,20.6693759 87.6451813,19.7509557 87.7280829,17.6664697 C87.124628,17.5707462 86.515262,17.5159505 85.9042487,17.5024661 C84.6060104,17.500826 83.4818653,17.861634 83.4818653,19.222864 L83.4818653,19.222864 Z" id="Shape"></path>
                        <path d="M0,0 L0,30.4292312 L95.9253886,30.4292312 L95.9253886,0 L0,0 Z M27.1552332,22.9490262 L21.8495337,22.9490262 L21.8495337,15.8870304 C21.8495337,13.7189026 21.118342,12.8841242 19.6858031,12.8841242 C17.9432124,12.8841242 17.2402073,14.1075912 17.2402073,15.8591498 L17.2402073,20.2282062 L18.9181347,20.2282062 L18.9181347,22.9523063 L13.6124352,22.9523063 L13.6124352,15.8870304 C13.6124352,13.7189026 12.8829016,12.8841242 11.4487047,12.8841242 C9.70611399,12.8841242 9.00310881,14.1075912 9.00310881,15.8591498 L9.00310881,20.2282062 L11.413886,20.2282062 L11.413886,22.9523063 L3.68414508,22.9523063 L3.68414508,20.2282062 L5.37036269,20.2282062 L5.37036269,13.1350497 L3.5465285,13.1350497 L3.5465285,10.4109497 L8.99647668,10.4109497 L8.99647668,12.3002713 C9.75585492,10.9669219 11.0773057,10.1600241 12.8464249,10.1600241 C14.6702591,10.1600241 16.3597927,11.0226831 16.9782383,12.8578836 C17.6812435,11.1899668 19.1137824,10.1600241 21.1100518,10.1600241 C23.3865285,10.1600241 25.4673575,11.5228942 25.4673575,14.4979198 L25.4673575,20.2282062 L27.1535751,20.2282062 L27.1552332,22.9490262 Z M35.2215544,23.2261923 C31.3152332,23.2261923 28.6159585,20.8629002 28.6159585,16.8595719 C28.6159585,13.1891709 30.8642487,10.1583841 35.413886,10.1583841 C39.9635233,10.1583841 42.188601,13.1891709 42.188601,16.6922882 C42.1919171,20.6972566 39.2688083,23.2278324 35.2215544,23.2278324 L35.2215544,23.2261923 Z M55.4031088,22.9490262 L44.3274611,22.9490262 L43.9626943,21.0580645 L50.9264249,13.1334097 L46.9637306,13.1334097 L46.401658,15.0801326 L43.786943,14.8029665 L44.2362694,10.4093096 L55.3782383,10.4093096 L55.6584456,12.3002713 L48.6283938,20.2282062 L52.7253886,20.2282062 L53.3156477,18.2814833 L56.1823834,18.5586494 L55.4031088,22.9490262 Z M62.2607254,22.9490262 L58.4654922,22.9490262 L58.4654922,18.4454869 L62.2607254,18.4454869 L62.2607254,22.9490262 Z M62.2607254,14.912849 L58.4654922,14.912849 L58.4654922,10.4109497 L62.2607254,10.4109497 L62.2607254,14.912849 Z M64.2503627,22.9490262 L69.7367876,3.82784444 L73.3065285,3.82784444 L67.8250777,22.9490262 L64.2503627,22.9490262 Z M71.6153368,22.9490262 L77.0984456,3.82784444 L80.6681865,3.82784444 L75.1900518,22.9490262 L71.6153368,22.9490262 Z M90.5036269,23.2261923 C88.8174093,23.2261923 87.8905699,22.2520109 87.7214508,20.7234971 C86.9902591,22.0027254 85.6969948,23.2261923 83.6460104,23.2261923 C81.8221762,23.2261923 79.7396891,22.2520109 79.7396891,19.6394332 C79.7396891,16.5528851 82.7473575,15.8312692 85.6422798,15.8312692 C86.3375651,15.8253486 87.0325408,15.8625959 87.7231088,15.9427917 L87.7231088,15.5262225 C87.7231088,14.2469943 87.6949223,12.7184806 85.6422798,12.7184806 C84.8829016,12.7184806 84.2926425,12.7742418 83.7023834,13.0792885 L83.2331606,14.8587278 L80.3382383,14.552041 L80.9003109,11.2998493 C83.1204145,10.4093096 84.2445596,10.1518239 86.3253886,10.1518239 C89.0528497,10.1518239 91.357513,11.5425746 91.357513,14.4060778 L91.357513,19.855918 C91.357513,20.579174 91.6377202,20.8300995 92.2296373,20.8300995 C92.4107119,20.8274384 92.5904799,20.7992749 92.7635233,20.7464576 L92.7917098,22.6374194 C92.0906217,23.0151559 91.306884,23.2178309 90.508601,23.2278324 L90.5036269,23.2261923 Z" id="Shape"></path>
                        <path d="M35.360829,12.9120048 C33.5054922,12.9120048 32.3531606,14.2732349 32.3531606,16.638167 C32.3531606,18.8062948 33.3645596,20.4742116 35.3376166,20.4742116 C37.2211399,20.4742116 38.4580311,18.9735785 38.4580311,16.5824058 C38.453057,14.05183 37.0768912,12.9120048 35.360829,12.9120048 L35.360829,12.9120048 Z" id="Shape"></path>
                    </g>
                </g>
            </g>
        </g>
    </g>
</svg>