<?xml version="1.0" encoding="UTF-8" standalone="no"?>
<svg width="90px" height="87px" viewBox="0 0 90 87" version="1.1" xmlns="http://www.w3.org/2000/svg" xmlns:xlink="http://www.w3.org/1999/xlink">
    <!-- Generator: Sketch 41.2 (35397) - http://www.bohemiancoding.com/sketch -->
    <title>nsf2 copy</title>
    <desc>Created with Sketch.</desc>
    <defs></defs>
    <g id="NSF-Challenge" stroke="none" stroke-width="1" fill="none" fill-rule="evenodd">
        <g id="Desktop-Comp" transform="translate(-770.000000, -66.000000)">
            <g id="Hero" transform="translate(351.000000, 66.000000)">
                <g id="nsf2-copy" transform="translate(419.000000, 0.000000)">
                    <path d="M16.7372338,52.3077734 C18.555302,52.1030941 19.4050327,51.8972593 19.4050327,49.9645256 L19.4050327,36.0851239 C17.707793,34.0650714 17.2220861,33.9754417 16.828667,33.9754417 L16.828667,33.2445385 L23.2254028,33.2445385 L33.7460327,45.7486274 L33.8060197,45.7486274 L33.8060197,36.8761103 C33.8060197,35.1196649 33.4423377,34.151895 30.9864588,33.9754417 L30.9864588,33.2445385 L37.5048776,33.2445385 L37.5048776,33.9754417 C35.3222729,34.2406994 35.1390647,34.9144904 35.1390647,36.3183593 L35.1390647,53.5667161 L34.2918975,53.5667161 L20.8001155,37.6956528 L20.7389321,37.6956528 L20.7389321,49.4095806 C20.7389321,51.5181075 21.376572,52.0728874 23.6196764,52.3077734 L23.6196764,53.039997 L16.7372338,53.039997 L16.7372338,52.3077734" id="Fill-1" fill="#FFFFFF"></path>
                    <path d="M16.7372338,52.3077734 C18.555302,52.1030941 19.4050327,51.8972593 19.4050327,49.9645256 L19.4050327,36.0851239 C17.707793,34.0650714 17.2220861,33.9754417 16.828667,33.9754417 L16.828667,33.2445385 L23.2254028,33.2445385 L33.7460327,45.7486274 L33.8060197,45.7486274 L33.8060197,36.8761103 C33.8060197,35.1196649 33.4423377,34.151895 30.9864588,33.9754417 L30.9864588,33.2445385 L37.5048776,33.2445385 L37.5048776,33.9754417 C35.3222729,34.2406994 35.1390647,34.9144904 35.1390647,36.3183593 L35.1390647,53.5667161 L34.2918975,53.5667161 L20.8001155,37.6956528 L20.7389321,37.6956528 L20.7389321,49.4095806 C20.7389321,51.5181075 21.376572,52.0728874 23.6196764,52.3077734 L23.6196764,53.039997 L16.7372338,53.039997 L16.7372338,52.3077734 Z" id="Stroke-2" stroke="#FFFFFF"></path>
                    <path d="M51.9615791,39.1300585 C51.4155434,37.0809547 49.5966207,33.7131551 46.0196167,33.7131551 C44.4435474,33.7131551 42.7750195,34.5917904 42.7750195,36.4951428 C42.7750195,38.07563 43.3511342,38.7200397 45.8987882,39.9494359 L50.3549182,42.0866839 C51.3851226,42.5861673 53.6907777,44.2846753 53.6907777,47.4756915 C53.6907777,50.0526698 51.7489755,53.5969228 46.1718915,53.5969228 C43.2906345,53.5969228 41.9261433,52.6009269 40.9873721,52.6009269 C40.3492195,52.6009269 40.1977993,53.1274809 40.0771417,53.5969228 L39.1992119,53.5969228 L39.1992119,46.3638208 L40.0771417,46.3638208 C40.6840189,49.3204461 42.442271,52.6301433 46.2928909,52.6301433 C49.9312491,52.6301433 50.0830112,49.7314553 50.0830112,49.3501576 C50.0830112,47.3877124 48.6576785,46.6858605 46.6869937,45.7771835 L44.6558092,44.8404456 C39.4702644,42.4386002 39.4702644,39.9210449 39.4702644,38.5739581 C39.4702644,36.7879662 40.4107447,32.8067889 46.1718915,32.8067889 C48.5975206,32.8067889 50.0213151,33.7717528 50.9011248,33.7717528 C51.598068,33.7717528 51.7489755,33.3325176 51.9005667,32.7764172 L52.8107971,32.7764172 L52.8107971,39.1300585 L51.9615791,39.1300585" id="Fill-3" fill="#FFFFFF"></path>
                    <path d="M51.9615791,39.1300585 C51.4155434,37.0809547 49.5966207,33.7131551 46.0196167,33.7131551 C44.4435474,33.7131551 42.7750195,34.5917904 42.7750195,36.4951428 C42.7750195,38.07563 43.3511342,38.7200397 45.8987882,39.9494359 L50.3549182,42.0866839 C51.3851226,42.5861673 53.6907777,44.2846753 53.6907777,47.4756915 C53.6907777,50.0526698 51.7489755,53.5969228 46.1718915,53.5969228 C43.2906345,53.5969228 41.9261433,52.6009269 40.9873721,52.6009269 C40.3492195,52.6009269 40.1977993,53.1274809 40.0771417,53.5969228 L39.1992119,53.5969228 L39.1992119,46.3638208 L40.0771417,46.3638208 C40.6840189,49.3204461 42.442271,52.6301433 46.2928909,52.6301433 C49.9312491,52.6301433 50.0830112,49.7314553 50.0830112,49.3501576 C50.0830112,47.3877124 48.6576785,46.6858605 46.6869937,45.7771835 L44.6558092,44.8404456 C39.4702644,42.4386002 39.4702644,39.9210449 39.4702644,38.5739581 C39.4702644,36.7879662 40.4107447,32.8067889 46.1718915,32.8067889 C48.5975206,32.8067889 50.0213151,33.7717528 50.9011248,33.7717528 C51.598068,33.7717528 51.7489755,33.3325176 51.9005667,32.7764172 L52.8107971,32.7764172 L52.8107971,39.1300585 L51.9615791,39.1300585 Z" id="Stroke-4" stroke="#FFFFFF"></path>
                    <path d="M55.475007,33.2443735 L72.6632543,33.2443735 L72.6632543,39.1302236 L71.9369158,39.1302236 C71.2702224,36.0849589 70.4512543,34.2406994 65.2356305,34.2406994 C63.5987196,34.2406994 63.0540512,34.3575647 63.0540512,35.6170026 L63.0540512,42.4098791 C66.813067,42.4684768 67.268524,40.3899916 67.6928766,38.047239 L68.4498069,38.047239 L68.4498069,47.9448032 L67.6928766,47.9448032 C67.3599572,45.543618 66.8757885,43.4058749 63.0540512,43.4058749 L63.0540512,50.2279677 C63.0540512,52.1615267 64.2664384,52.2199594 66.389398,52.3077734 L66.389398,53.039832 L55.475007,53.039832 L55.475007,52.3077734 C57.203522,52.1321453 58.1421224,52.0438361 58.1421224,50.2279677 L58.1421224,36.0547522 C58.1421224,34.123504 56.8986307,34.0652364 55.475007,33.9754417 L55.475007,33.2443735" id="Fill-5" fill="#FFFFFF"></path>
                    <path d="M55.475007,33.2443735 L72.6632543,33.2443735 L72.6632543,39.1302236 L71.9369158,39.1302236 C71.2702224,36.0849589 70.4512543,34.2406994 65.2356305,34.2406994 C63.5987196,34.2406994 63.0540512,34.3575647 63.0540512,35.6170026 L63.0540512,42.4098791 C66.813067,42.4684768 67.268524,40.3899916 67.6928766,38.047239 L68.4498069,38.047239 L68.4498069,47.9448032 L67.6928766,47.9448032 C67.3599572,45.543618 66.8757885,43.4058749 63.0540512,43.4058749 L63.0540512,50.2279677 C63.0540512,52.1615267 64.2664384,52.2199594 66.389398,52.3077734 L66.389398,53.039832 L55.475007,53.039832 L55.475007,52.3077734 C57.203522,52.1321453 58.1421224,52.0438361 58.1421224,50.2279677 L58.1421224,36.0547522 C58.1421224,34.123504 56.8986307,34.0652364 55.475007,33.9754417 L55.475007,33.2443735 Z" id="Stroke-6" stroke="#FFFFFF"></path>
                    <path d="M44.7009277,72.8484956 C27.7396398,72.8484956 13.9892812,59.5694314 13.9892812,43.1873302 C13.9892812,26.8047338 27.7396398,13.5250094 44.7009277,13.5250094 C61.6615319,13.5250094 75.4113778,26.8047338 75.4113778,43.1873302 C75.4113778,59.5694314 61.6615319,72.8484956 44.7009277,72.8484956 M44.7005859,12.9165837 C27.3911682,12.9165837 13.3591612,26.4688287 13.3591612,43.1870001 C13.3591612,59.9041811 27.3911682,73.4567562 44.7005859,73.4567562 C62.0094908,73.4567562 76.0414979,59.9041811 76.0414979,43.1870001 C76.0414979,26.4688287 62.0094908,12.9165837 44.7005859,12.9165837" id="Fill-7" fill="#FFFFFF"></path>
                    <path d="M44.7009277,72.8484956 C27.7396398,72.8484956 13.9892812,59.5694314 13.9892812,43.1873302 C13.9892812,26.8047338 27.7396398,13.5250094 44.7009277,13.5250094 C61.6615319,13.5250094 75.4113778,26.8047338 75.4113778,43.1873302 C75.4113778,59.5694314 61.6615319,72.8484956 44.7009277,72.8484956 Z M44.7005859,12.9165837 C27.3911682,12.9165837 13.3591612,26.4688287 13.3591612,43.1870001 C13.3591612,59.9041811 27.3911682,73.4567562 44.7005859,73.4567562 C62.0094908,73.4567562 76.0414979,59.9041811 76.0414979,43.1870001 C76.0414979,26.4688287 62.0094908,12.9165837 44.7005859,12.9165837 Z" id="Stroke-8" stroke="#FFFFFF"></path>
                    <path d="M80.469087,39.6912759 L80.0942963,40.1602226 C79.3448858,40.8655408 78.1468543,40.6293343 77.1692881,40.5524145 C76.5275465,40.3995653 75.8859759,40.2559597 75.2474816,40.1088877 C75.3337877,40.9172058 75.3855714,41.7352627 75.4031744,42.5614078 C75.4183848,42.5706513 75.433937,42.5792347 75.4493183,42.5884782 C75.6168034,42.9392391 75.5682669,43.1934376 75.4084724,43.3977868 C75.4023199,44.2617314 75.3577142,45.1169277 75.2765351,45.961725 C76.0503848,45.7780088 76.8314124,45.6164112 77.6191053,45.4833697 C78.4450804,45.4036438 79.3460821,45.3275493 79.9435597,45.9511609 C80.6211908,47.0501566 80.3805591,48.8313617 80.2452038,50.0985575 C80.2370005,50.1794389 80.2243536,50.2588346 80.2134158,50.3392208 C79.9926089,51.2903192 79.7179674,52.2643616 79.1876548,53.1363944 L78.6556332,53.4333444 C77.6837067,53.806719 76.6681999,53.1441524 75.7974481,52.7131704 C75.2544886,52.3272509 74.7075984,51.9500798 74.1653225,51.5705978 C73.9257163,52.3574576 73.6536384,53.1309473 73.3497725,53.889251 C73.3663501,53.9115346 73.3836113,53.9333231 73.400018,53.9557718 C73.4172793,54.3621592 73.2564593,54.5816943 73.0079661,54.7091236 C72.665647,55.4931774 72.2876091,56.2590741 71.8789796,57.0068137 C72.6765848,57.1238441 73.4714556,57.2644785 74.261712,57.4346595 C75.0541901,57.6670695 75.9165676,57.9277055 76.2218007,58.7254595 C76.4115033,59.9908397 75.4836698,61.5485481 74.8569678,62.6699926 C74.8383393,62.7030054 74.8180019,62.7346976 74.7990316,62.7672152 C74.1683988,63.6473362 73.4827352,64.5550228 72.5593452,65.2312898 L71.9495626,65.3055686 C70.9038059,65.2940141 70.2287383,64.3061064 69.5943456,63.584942 C69.2407469,63.0200932 68.8799703,62.462012 68.5246625,61.9034356 C67.9940081,62.5329895 67.4375473,63.1412501 66.8559637,63.7262367 C66.8658761,63.7675027 66.8771557,63.8079434 66.8868972,63.8492094 C66.7306916,64.2597234 66.4692098,64.3937553 66.1602168,64.4026688 C65.5412054,64.9868301 64.8982676,65.5475523 64.2298652,66.0797184 C64.934499,66.4900674 65.6273406,66.9220398 66.3030918,67.3809175 C66.9451752,67.8868385 67.6378458,68.4460751 67.6033234,69.2966496 C67.3015083,70.4446694 66.0159745,71.4672405 65.0161908,72.250634 C64.0281994,72.8689635 62.9762902,73.5168395 61.7758661,73.8197318 L61.1843702,73.6635813 C60.2215016,73.2636314 59.9892441,72.1038921 59.6884545,71.2033033 C59.5860835,70.5503103 59.4741419,69.9011138 59.3674983,69.2534029 C58.6302219,69.6411381 57.8736334,69.9993269 57.101151,70.3289596 C57.0943148,70.3679146 57.0891878,70.4063745 57.0823516,70.4451646 C56.7807075,70.7619223 56.4911975,70.7939447 56.2069854,70.6942461 C55.4054494,71.0073724 54.5876776,71.2897968 53.7541828,71.5377228 C54.2397187,72.1728889 54.7057718,72.823736 55.1458475,73.492245 C55.5356777,74.1978933 55.9564414,74.9730336 55.586265,75.7443774 C54.8479632,76.6996025 53.2366879,77.1700347 51.9972979,77.524592 C50.8274655,77.7330678 49.5849992,77.9491365 48.342533,77.7834123 L47.8581933,77.4204367 C47.1270695,76.6967964 47.3712901,75.5385427 47.4524691,74.5968529 C47.6148272,73.9590458 47.7672728,73.3209086 47.9238202,72.6862377 C47.0928888,72.7699252 46.2518742,72.8215902 45.4021435,72.8399123 C45.3824896,72.8707792 45.3638612,72.9019763 45.3436946,72.9328433 C44.9444647,73.1109473 44.6660634,73.0373287 44.4440602,72.8453594 C43.5661304,72.8382616 42.6972586,72.7958402 41.8382991,72.7192505 C42.0339833,73.4828363 42.205741,74.2531897 42.3465652,75.0306409 C42.4270606,75.8287251 42.5089233,76.6967964 41.8615419,77.2750154 C40.8299702,77.86776 39.214935,77.7314172 37.943757,77.6046481 C36.7259008,77.3519352 35.4150733,77.0992223 34.2724145,76.4518415 L33.9683778,75.9381625 C33.5804275,74.999774 34.2642112,74.0204496 34.7121485,73.1787885 C35.1103529,72.656031 35.4998413,72.1298072 35.8913805,71.6077099 C35.0790776,71.3733191 34.2802761,71.1087216 33.4977103,70.8124318 C33.4734421,70.8292684 33.4498575,70.8467651 33.4252474,70.8636017 C32.9974767,70.8797779 32.7693209,70.7190057 32.6382382,70.47207 C31.829866,70.1379806 31.0397806,69.7710434 30.2690071,69.3740646 C30.1469823,70.1503604 30.0001764,70.9241801 29.8220953,71.693048 C29.5833435,72.4602652 29.3134874,73.2926827 28.4866577,73.5866615 C27.4062077,73.7395108 26.1196484,73.1553495 25.0513325,72.6066769 C23.9819912,71.8889789 22.794214,71.1496575 21.9508067,70.0750912 L21.8745839,69.4887841 C21.8877434,68.4777674 22.9078646,67.8244443 23.6552243,67.2128824 C24.2219393,66.8822593 24.7818182,66.5451988 25.3420389,66.21276 C24.6833779,65.6954496 24.0469344,65.1532145 23.435101,64.5858898 C23.417327,64.5898513 23.4004076,64.594308 23.3828046,64.5984346 C23.0061339,64.4644027 22.854201,64.2506449 22.8177986,63.9961163 C22.1962237,63.3865351 21.6009679,62.7520293 21.0352783,62.0924338 C20.6218634,62.7525245 20.1869148,63.4013909 19.7261598,64.0347413 C19.201487,64.6543913 18.6216124,65.3235605 17.7411191,65.2895574 C16.6199942,65.0148909 15.6118362,63.8926212 14.8200417,62.9539025 C14.1222439,61.9093779 13.3354056,60.7986626 12.9883012,59.5131446 L13.1486084,58.9416933 C13.5615105,58.0127134 14.76296,57.7874011 15.6947243,57.4987043 C16.3421056,57.4036274 16.985727,57.3001323 17.6278103,57.2005988 C17.2272132,56.4800947 16.8570369,55.7412685 16.5176231,54.9865961 C16.5053181,54.9846153 16.4928422,54.9831298 16.4801953,54.9809839 C16.1915398,54.7238143 16.131211,54.4758883 16.1913689,54.2329141 C15.8606713,53.4376361 15.5650087,52.6253564 15.3055777,51.7978908 C14.6616144,52.255283 14.0022699,52.6943531 13.3253223,53.1099841 C12.5945402,53.4878155 11.7940297,53.8913968 10.9935191,53.5363443 C10.1255018,52.9094314 9.64372564,51.6326618 9.29132324,50.5216164 C9.05701496,49.2497988 8.73229888,47.8701943 8.92883756,46.4892694 L9.30448279,46.0213131 C10.0537224,45.3159948 11.2534629,45.551211 12.227782,45.6299465 C12.8642255,45.781145 13.5008399,45.9234302 14.1342072,46.0691816 C14.0533699,45.2613587 14.0072261,44.4441271 13.995092,43.6188074 C13.980907,43.6102241 13.9665511,43.602301 13.9523662,43.5937177 C13.7826593,43.2401507 13.832563,42.9844666 13.994921,42.778962 C14.0068843,41.9150173 14.0554208,41.0594909 14.1424105,40.2146937 C13.3613829,40.4007207 12.5733483,40.5636388 11.7779648,40.6978358 C10.9533568,40.7767364 10.0537224,40.8549767 9.4548776,40.2302097 C8.79655849,39.1599351 9.00694032,37.4424447 9.14280836,36.1836671 C9.38156013,35.1102563 9.65415073,33.9851804 10.257439,32.9916606 L10.7899734,32.6963612 C11.7620708,32.3229865 12.7762103,32.982417 13.6469621,33.4155448 C14.1988086,33.8080668 14.7544149,34.1916754 15.3052359,34.5774299 C15.5491147,33.7993184 15.8239271,33.034082 16.1308692,32.2843616 C16.1028411,32.2463968 16.0737875,32.2097527 16.0457594,32.1717879 C16.0262765,31.7224839 16.2253787,31.5016283 16.5206994,31.3811317 C16.8654112,30.6147398 17.2415691,29.8646892 17.6493441,29.133621 C16.8243944,29.0144448 16.0020082,28.8701789 15.18492,28.6938907 C14.3910747,28.4621409 13.5273299,28.2021652 13.223464,27.4035858 C13.0737528,26.4056092 13.6197885,25.2262273 14.1649697,24.2216482 C14.9159184,23.1779488 15.6875463,22.0112769 16.8155074,21.1869476 L17.4249482,21.1118435 C18.4700213,21.1250486 19.1457725,22.1106454 19.7777725,22.8316447 C20.1305167,23.3948429 20.490268,23.9514385 20.8447212,24.5085293 C21.3758883,23.8763344 21.9323492,23.2649375 22.5147873,22.677475 C22.5059003,22.641491 22.4963297,22.6060023 22.4877846,22.5696882 C22.6402302,22.1682527 22.8931669,22.0307544 23.1929311,22.0162288 C23.8133098,21.428271 24.4582984,20.8644126 25.1284099,20.328615 C24.4285613,19.9214023 23.7410177,19.4930614 23.0702226,19.0384753 C22.4293357,18.5304084 21.7346142,17.9698513 21.7703329,17.1202672 C22.0557413,16.0300198 23.2349733,15.0492099 24.2108306,14.2816625 C25.3008512,13.6037449 26.4564986,12.8342168 27.8009941,12.496661 L28.3928318,12.6508308 C29.3517697,13.0501205 29.5864198,14.2091995 29.8848168,15.1109438 C29.9863333,15.7546932 30.0970785,16.3948111 30.2028676,17.0331134 C30.9425366,16.65 31.7004923,16.2957728 32.4746838,15.9707619 C32.4806654,15.9372539 32.4851089,15.9037459 32.4910905,15.8700729 C32.7881203,15.5594225 33.0735286,15.5231085 33.3534681,15.6163696 C34.1613275,15.3060494 34.9864481,15.0287419 35.8264373,14.7842822 C35.3388505,14.1466402 34.8709175,13.4934822 34.4291328,12.821672 C34.0391317,12.1160236 33.6207607,11.3430291 33.9880316,10.5697046 C34.624646,9.74768613 35.9096672,9.2845167 37.0453189,8.94465004 C38.3727241,8.71768712 39.8127544,8.39696788 41.2553483,8.58926737 L41.7408843,8.95240805 C42.4706409,9.675058 42.2264203,10.8339719 42.1466085,11.7779726 C41.9852759,12.408847 41.8341974,13.0400516 41.6790173,13.6679548 C42.5089233,13.5897145 43.3489125,13.5443219 44.1967632,13.5311168 C44.2164171,13.500745 44.2347037,13.4702082 44.2545285,13.4398364 C44.6564928,13.2602469 44.9357487,13.3360112 45.1580937,13.5304565 C46.0361943,13.5428363 46.9059207,13.5893844 47.7645384,13.6715862 C47.5671452,12.901728 47.3941912,12.124772 47.2526833,11.3407183 C47.1691116,10.544945 47.0891289,9.675058 47.7348012,9.09749926 C48.8723329,8.44351591 50.717062,8.6765862 52.0294277,8.8061614 C52.3105634,8.83438733 52.5848631,8.87697383 52.8567701,8.9233568 C53.661895,9.11813225 54.4665073,9.37101021 55.2008783,9.78746654 L55.5062823,10.3013106 C55.8944035,11.2390389 55.2101071,12.2201789 54.7609735,13.0613448 C54.3304683,13.6265237 53.9105592,14.1956642 53.487232,14.7590275 C54.28159,14.9878061 55.0629594,15.2459661 55.8291185,15.5336725 C55.9032905,15.4818425 55.9759243,15.4285268 56.0511217,15.377357 C56.5839979,15.3560637 56.8060012,15.6119129 56.9167464,15.9666353 C57.6883744,16.2899955 58.4435956,16.6427372 59.1807011,17.0242 C59.3064858,16.1944235 59.4606405,15.3676182 59.6501722,14.546095 C59.8896075,13.7787127 60.1604891,12.9461302 60.9871479,12.6516561 C61.9387369,12.517294 63.0509749,12.9552087 64.0340101,13.4370303 C65.1857267,14.2299975 66.5418436,15.0095945 67.4749751,16.2011911 L67.5535905,16.7891489 C67.5407728,17.7996704 66.519968,18.4508476 65.7726083,19.0629047 C65.1766689,19.4106945 64.588591,19.7655819 63.9996585,20.1148572 C64.6514833,20.6240795 65.2824579,21.1569059 65.8886516,21.7149871 C65.940948,21.7031025 65.9923898,21.6898974 66.0446862,21.678508 C66.4849328,21.8351537 66.6185791,22.1002464 66.6185791,22.4127124 C67.2201584,23.0047968 67.7971276,23.6201552 68.3460687,24.2591177 C68.7733267,23.573277 69.2234857,22.8991558 69.7018437,22.2417062 C70.2251493,21.621891 70.8057075,20.9542074 71.6848335,20.9850744 C72.7148671,21.2372921 73.6483404,22.2032463 74.4069797,23.0856781 C75.1340019,24.1889655 76.0011647,25.3566278 76.3706574,26.7236874 L76.2093248,27.295634 C75.79591,28.2246139 74.5937769,28.449431 73.6626962,28.7391182 C73.0057444,28.8356806 72.3525523,28.9408263 71.7008984,29.0415153 C72.1045718,29.7590483 72.476799,30.4955636 72.8196308,31.2472648 C72.8382592,31.250401 72.8570586,31.2527119 72.8758579,31.2558481 C73.1725459,31.5199504 73.2279185,31.774314 73.1595572,32.0235605 C73.491964,32.8125662 73.7910445,33.6179132 74.0530391,34.4391063 C74.6964897,33.9820442 75.3554924,33.5434693 76.03244,33.1288287 C76.7621966,32.7480262 77.5637326,32.3469208 78.3637305,32.7014781 C79.3424931,33.4074566 79.8295672,34.9395802 80.1966673,36.1308466 C80.4135435,37.2691276 80.6435792,38.4797066 80.469087,39.6912759 M82.418238,38.439431 C82.1343678,37.7187618 81.8711768,36.9923154 81.6339632,36.2559651 C81.4916008,34.8653014 81.4845938,33.4926296 81.5162109,32.2909641 C82.0311422,29.7110147 83.9602975,28.3465961 86.2772322,27.50477 C86.0082305,26.848971 85.673773,26.0711897 85.4413446,25.5291197 C82.9437653,26.6995881 79.9363817,26.908394 77.6744779,24.8464152 C77.1935563,24.3541945 76.7232307,23.8510796 76.2681155,23.3336041 C75.5142615,22.0168891 74.9164421,20.6468583 74.4351787,19.4420566 C73.8911938,16.8677193 75.1328056,14.8940498 76.9390814,13.2592565 C76.429619,12.7543259 75.8121458,12.1577848 75.3833496,11.7433092 C73.5382787,13.7475156 70.8434771,15.052016 67.9360719,13.9827317 C67.3801238,13.7422336 66.8286192,13.4918316 66.2839507,13.2273991 C65.0126018,12.2637558 63.8714811,11.17747 62.914936,10.2077193 C61.3913339,8.03135124 61.7565541,5.75000248 62.7787261,3.57214881 C62.1092983,3.29319074 61.3014389,2.97032567 60.7422436,2.74616883 C59.8313296,5.27990037 57.8579103,7.48020274 54.7490103,7.56818182 C53.8010102,7.54160652 52.8535229,7.49109696 51.9062065,7.39304897 C50.6992881,7.01224646 49.5549203,6.55633984 48.5488132,6.1266784 C46.2785351,4.680058 45.7123328,2.43617874 45.7929991,0.0465480321 C45.0639261,0.0374695152 44.1907816,0.0359839397 43.5842462,0.0374695152 C43.7464333,2.71398136 42.7950152,5.47715178 39.9587057,6.70654803 C39.3031211,6.94787152 38.6422384,7.17450431 37.973836,7.38231982 C36.4302383,7.5490344 34.896553,7.55712253 33.5614572,7.52609051 C30.8921202,7.02792753 29.4794344,5.16353029 28.6056063,2.92674879 C27.9288297,3.18606424 27.1221666,3.50975463 26.5645094,3.73242589 C27.7739914,6.14813671 27.9891585,9.0501259 25.8557739,11.2352424 C25.2832482,11.7575047 24.6968793,12.2649113 24.0908565,12.7536656 C22.7608879,13.4535367 21.3842626,14.0121131 20.1693118,14.4647184 C17.5057854,14.9924279 15.4622959,13.7915877 13.768987,12.0468618 C13.246365,12.5382572 12.62855,13.1344681 12.2014629,13.5482834 C14.275715,15.330809 15.6256794,17.9333722 14.519423,20.74144 C14.2478578,21.3270868 13.9645003,21.9074517 13.6631979,22.4802236 C12.7057982,23.6310494 11.6443185,24.6668256 10.691704,25.5418296 C8.44073803,27.0133746 6.076805,26.6593125 3.8213955,25.6730554 C3.53376542,26.3207663 3.19913696,27.099538 2.96756312,27.6392971 C5.59092721,28.5200783 7.87009225,30.4254114 7.95981643,33.4280896 C7.93640269,34.2251834 7.8938478,35.0212868 7.81642865,35.8173902 C7.40027936,37.1250268 6.87423932,38.3669679 6.37930366,39.4471463 C4.88167894,41.637875 2.55773726,42.1848969 0.0835716636,42.1073168 C0.074342891,42.8104892 0.0736592782,43.6551214 0.074342891,44.2386225 C2.84519643,44.0826371 5.70662867,45.001548 6.97951569,47.7430951 C7.23604139,48.3922916 7.47633128,49.0475954 7.6962837,49.7109874 C7.86650328,51.1937568 7.87419393,52.6657971 7.84172232,53.9466933 C7.32593647,56.5263126 5.39643937,57.8908962 3.07899201,58.7328874 C3.34918996,59.387696 3.68142578,60.1676232 3.91453774,60.7070521 C6.41433881,59.5377392 9.42035516,59.3302538 11.6824299,61.3923976 C12.2146224,61.9343026 12.7314337,62.4908982 13.2294456,63.0656508 C13.9498026,64.3453916 14.5255755,65.6685442 14.9929957,66.8360414 C15.5386896,69.4092233 14.2953689,71.3827278 12.4877257,73.0175211 C12.9970173,73.520801 13.6139778,74.1178373 14.042603,74.5306622 C15.8883576,72.5279414 18.5836719,71.223276 21.4900517,72.2930554 C22.1384584,72.5730039 22.7796872,72.8678081 23.4125418,73.1820898 C24.5946792,74.1021562 25.6582098,75.1202706 26.5585278,76.032414 C28.0824716,78.2068013 27.7170806,80.4896357 26.6945668,82.6673243 C27.3645073,82.9484282 28.1713413,83.2688173 28.7305366,83.4942946 C29.6419633,80.9597378 31.6160661,78.7577848 34.7251371,78.6722816 C35.5193243,78.6940701 36.3133405,78.7330252 37.107015,78.802352 C38.5291005,79.2123709 39.8821411,79.7448672 41.0500936,80.2446808 C43.3193462,81.6922916 43.8853776,83.9374913 43.8047113,86.3262967 C44.5344679,86.3362006 45.4069288,86.3362006 46.0132933,86.3362006 C45.8511062,83.6575429 46.8021825,80.8948677 49.6396883,79.6664618 C50.3914914,79.3894845 51.1503016,79.1324799 51.9202205,78.9013904 C53.3554656,78.766203 54.7712277,78.7602607 56.0128394,78.7886517 C58.6838855,79.2864846 60.0945205,81.1507168 60.9676649,83.389479 C61.6446125,83.1295033 62.4531555,82.8051527 63.0109835,82.5819862 C61.8011598,80.1666055 61.5846255,77.2632958 63.7205736,75.0786745 C64.2925866,74.5562471 64.8787846,74.0495008 65.4844655,73.5610766 C66.7512,72.9094042 68.0500643,72.3830153 69.2041736,71.9517032 C71.8666745,71.4253143 73.9117022,72.624999 75.6043275,74.3703851 C76.1257531,73.8793199 76.7440809,73.2822836 77.172877,72.8697888 C75.0975995,71.086438 73.7467806,68.4838748 74.8533788,65.6756419 C75.2153518,64.8955497 75.6003967,64.1248662 76.0203059,63.3685432 C76.9143005,62.330291 77.8787072,61.3905819 78.7525353,60.5873808 C81.0052103,59.1156707 83.3664089,59.4689075 85.6235274,60.4548344 C85.9106448,59.8086091 86.2451024,59.0311579 86.4773598,58.4876024 C83.8546793,57.6099574 81.5753434,55.7036339 81.4840811,52.7014509 C81.5086911,51.8583043 81.5558604,51.016148 81.6423374,50.1743219 C82.0484034,48.9358471 82.5482953,47.7622425 83.0199881,46.7357098 C84.5176128,44.5449812 86.8401873,43.9966387 89.3143529,44.0753742 C89.3261452,43.3695608 89.3261452,42.5275696 89.3261452,41.9419228 C86.5527281,42.0987335 83.6923213,41.1796575 82.418238,38.439431" id="Fill-9" fill="#FFFFFF"></path>
                </g>
            </g>
        </g>
    </g>
</svg>